<?xml version="1.0" encoding="utf-8"?>
<!-- Generator: Adobe Illustrator 20.0.0, SVG Export Plug-In . SVG Version: 6.00 Build 0)  -->
<svg version="1.1" id="Capa_1" xmlns="http://www.w3.org/2000/svg" xmlns:xlink="http://www.w3.org/1999/xlink" x="0px" y="0px"
	 viewBox="0 0 99 99" style="enable-background:new 0 0 99 99;" xml:space="preserve">
<style type="text/css">
	.st0{fill:#ED7161;}
	.st1{fill:#CCCCCC;}
	.st2{fill:#FFFFFF;}
	.st3{fill:#75A64B;}
	.st4{fill:#FFCC66;}
</style>
<g id="Sign">
	<g>
		<path class="st0" d="M24.6,86.6c-1.7,0-3.1,1.4-3.1,3.1v6.2c0,1.7,1.4,3.1,3.1,3.1c1.7,0,3.1-1.4,3.1-3.1v-6.2
			C27.7,88,26.3,86.6,24.6,86.6z"/>
	</g>
</g>
<g id="Cover">
	<g>
		<path class="st1" d="M80.3,0H12.3v92.8h68.1c3.4,0,6.2-2.8,6.2-6.2V6.2C86.5,2.8,83.7,0,80.3,0z"/>
	</g>
</g>
<g id="Text">
	<g>
		<path class="st2" d="M61.8,74.3H24.6c-1.7,0-3.1,1.4-3.1,3.1c0,1.7,1.4,3.1,3.1,3.1h37.1c1.7,0,3.1-1.4,3.1-3.1
			C64.9,75.6,63.5,74.3,61.8,74.3z"/>
	</g>
</g>
<g id="Text_1_">
	<g>
		<path class="st2" d="M43.2,61.9H24.6c-1.7,0-3.1,1.4-3.1,3.1c0,1.7,1.4,3.1,3.1,3.1h18.6c1.7,0,3.1-1.4,3.1-3.1
			C46.3,63.3,44.9,61.9,43.2,61.9z"/>
	</g>
</g>
<g id="Rounded_Rectangle_168">
	<g>
		<path class="st2" d="M74.1,9.3H24.6c-1.7,0-3.1,1.4-3.1,3.1v37.1c0,1.7,1.4,3.1,3.1,3.1h49.5c1.7,0,3.1-1.4,3.1-3.1V12.4
			C77.2,10.7,75.8,9.3,74.1,9.3z"/>
	</g>
</g>
<g id="Picture">
	<g>
		<polygon class="st3" points="55.6,24.8 43.2,43.3 33.9,30.9 21.5,52.6 77.2,52.6 		"/>
	</g>
</g>
<g id="Sun">
	<g>
		<circle class="st4" cx="33.9" cy="21.7" r="6.2"/>
	</g>
</g>
</svg>
