<?xml version="1.0" encoding="utf-8"?>
<!-- Generator: Adobe Illustrator 20.0.0, SVG Export Plug-In . SVG Version: 6.00 Build 0)  -->
<svg version="1.1" id="Capa_1" xmlns="http://www.w3.org/2000/svg" xmlns:xlink="http://www.w3.org/1999/xlink" x="0px" y="0px"
	 viewBox="0 0 99 99" style="enable-background:new 0 0 99 99;" xml:space="preserve">
<style type="text/css">
	.st0{fill:#ED7161;}
	.st1{fill:#CCCCCC;}
	.st2{fill:#FFFFFF;}
	.st3{fill:#75A64B;}
	.st4{fill:#FFCC66;}
</style>
<g id="Sign">
	<g>
		<path class="st0" d="M25.6,86.6c-1.7,0-3.1,1.4-3.1,3.1v6.2c0,1.7,1.4,3.1,3.1,3.1c1.7,0,3.1-1.4,3.1-3.1v-6.2
			C28.7,88,27.3,86.6,25.6,86.6z"/>
	</g>
</g>
<g id="Cover">
	<g>
		<path class="st1" d="M81.3,0H13.3v92.8h68.1c3.4,0,6.2-2.8,6.2-6.2V6.2C87.5,2.8,84.7,0,81.3,0z"/>
	</g>
</g>
<g id="Text">
	<g>
		<path class="st2" d="M62.8,74.3H25.6c-1.7,0-3.1,1.4-3.1,3.1c0,1.7,1.4,3.1,3.1,3.1h37.1c1.7,0,3.1-1.4,3.1-3.1
			C65.9,75.6,64.5,74.3,62.8,74.3z"/>
	</g>
</g>
<g id="Text_1_">
	<g>
		<path class="st2" d="M44.2,61.9H25.6c-1.7,0-3.1,1.4-3.1,3.1c0,1.7,1.4,3.1,3.1,3.1h18.6c1.7,0,3.1-1.4,3.1-3.1
			C47.3,63.3,45.9,61.9,44.2,61.9z"/>
	</g>
</g>
<g id="Rounded_Rectangle_168">
	<g>
		<path class="st2" d="M75.1,9.3H25.6c-1.7,0-3.1,1.4-3.1,3.1v37.1c0,1.7,1.4,3.1,3.1,3.1h49.5c1.7,0,3.1-1.4,3.1-3.1V12.4
			C78.2,10.7,76.8,9.3,75.1,9.3z"/>
	</g>
</g>
<g id="Picture">
	<g>
		<polygon class="st3" points="56.6,24.8 44.2,43.3 34.9,30.9 22.5,52.6 78.2,52.6 		"/>
	</g>
</g>
<g id="Sun">
	<g>
		<circle class="st4" cx="34.9" cy="21.7" r="6.2"/>
	</g>
</g>
</svg>
